<svg width="31" height="31" viewBox="0 0 31 31" fill="none" xmlns="http://www.w3.org/2000/svg">
<path d="M12.4305 10.3056C12.0395 10.3056 11.7222 9.98822 11.7222 9.59722V7.70833C11.7222 7.31733 12.0395 7 12.4305 7C12.8215 7 13.1388 7.31733 13.1388 7.70833V9.59722C13.1388 9.98822 12.8215 10.3056 12.4305 10.3056Z" fill="#1B5E4B"/>
<path d="M18.5692 10.3056C18.1782 10.3056 17.8608 9.98822 17.8608 9.59722V7.70833C17.8608 7.31733 18.1782 7 18.5692 7C18.9602 7 19.2775 7.31733 19.2775 7.70833V9.59722C19.2775 9.98822 18.9602 10.3056 18.5692 10.3056Z" fill="#1B5E4B"/>
<path d="M19.9859 8.88889H11.0137C9.581 8.88889 8.4165 10.0534 8.4165 11.4861V19.5139C8.4165 20.9466 9.581 22.1111 11.0137 22.1111H19.9859C21.4187 22.1111 22.5832 20.9466 22.5832 19.5139V11.4861C22.5832 10.0534 21.4187 8.88889 19.9859 8.88889ZM19.9859 20.6944H11.0137C10.363 20.6944 9.83317 20.1646 9.83317 19.5139V13.6111H21.1665V19.5139C21.1665 20.1646 20.6367 20.6944 19.9859 20.6944Z" fill="#1B5E4B"/>
<path d="M15.4996 14.7917C14.9792 14.7917 14.5552 15.2157 14.5552 15.7361C14.5552 16.2565 14.9792 16.6805 15.4996 16.6805C16.02 16.6805 16.4441 16.2565 16.4441 15.7361C16.4441 15.2157 16.02 14.7917 15.4996 14.7917Z" fill="#1B5E4B"/>
<path d="M18.8053 16.6805C19.3257 16.6805 19.7497 16.2565 19.7497 15.7361C19.7497 15.2157 19.3257 14.7917 18.8053 14.7917C18.2849 14.7917 17.8608 15.2157 17.8608 15.7361C17.8608 16.2565 18.2849 16.6805 18.8053 16.6805Z" fill="#1B5E4B"/>
<path d="M15.4996 17.625C14.9792 17.625 14.5552 18.0491 14.5552 18.5694C14.5552 19.0898 14.9792 19.5139 15.4996 19.5139C16.02 19.5139 16.4441 19.0898 16.4441 18.5694C16.4441 18.0491 16.02 17.625 15.4996 17.625Z" fill="#1B5E4B"/>
<path d="M12.1944 17.625C11.6741 17.625 11.25 18.0491 11.25 18.5694C11.25 19.0898 11.6741 19.5139 12.1944 19.5139C12.7148 19.5139 13.1389 19.0898 13.1389 18.5694C13.1389 18.0491 12.7148 17.625 12.1944 17.625Z" fill="#1B5E4B"/>
<path d="M18.8053 17.625C18.2849 17.625 17.8608 18.0491 17.8608 18.5694C17.8608 19.0898 18.2849 19.5139 18.8053 19.5139C19.3257 19.5139 19.7497 19.0898 19.7497 18.5694C19.7497 18.0491 19.3257 17.625 18.8053 17.625Z" fill="#1B5E4B"/>
<circle cx="15.5" cy="15.5" r="14.5" stroke="#1B5E4B" stroke-width="1.5" stroke-linecap="round" stroke-linejoin="round" stroke-dasharray="2 3"/>
</svg>
