<svg width="20" height="21" viewBox="0 0 20 21" fill="none" xmlns="http://www.w3.org/2000/svg">
<path d="M12.0138 13.6944C11.4848 13.6944 11.0554 14.1238 11.0554 14.6528V17.8472C11.0554 18.0236 10.9123 18.1667 10.736 18.1667H3.96122L6.16539 16.8007C6.82728 16.3893 7.22211 15.6788 7.22211 14.9007V6.10061C7.22211 5.32244 6.826 4.61072 6.16539 4.20056L3.96122 2.83461H10.736C10.9123 2.83461 11.0554 2.97772 11.0554 3.15406V6.3485C11.0554 6.8775 11.4848 7.30683 12.0138 7.30683C12.5428 7.30683 12.9721 6.8775 12.9721 6.3485V3.15278C12.9721 1.91972 11.9691 0.916667 10.736 0.916667H2.43045C1.19739 0.916667 0.194336 1.91972 0.194336 3.15278V17.8472C0.194336 19.0803 1.19739 20.0833 2.43045 20.0833H10.736C11.9691 20.0833 12.9721 19.0803 12.9721 17.8472V14.6528C12.9721 14.1238 12.5428 13.6944 12.0138 13.6944Z" fill="#EBEBEB"/>
<path d="M19.7187 9.82278L16.2048 6.30889C15.8304 5.9345 15.2235 5.9345 14.8491 6.30889C14.4747 6.68328 14.4747 7.29022 14.8491 7.66461L16.7274 9.54294H11.3748C10.8458 9.54294 10.4165 9.97228 10.4165 10.5013C10.4165 11.0303 10.8458 11.4596 11.3748 11.4596H16.7274L14.8491 13.3379C14.4747 13.7123 14.4747 14.3193 14.8491 14.6937C15.0357 14.8802 15.281 14.9748 15.5263 14.9748C15.7717 14.9748 16.017 14.8815 16.2036 14.6937L19.7174 11.1798C20.0918 10.8054 20.0918 10.1984 19.7174 9.82405L19.7187 9.82278Z" fill="#EBEBEB"/>
</svg>
