<svg width="50" height="40" viewBox="0 0 50 40" fill="none" xmlns="http://www.w3.org/2000/svg">
<path d="M50 4.11125L49.8791 3.68803V3.08344L49.6977 2.41838L49.6372 1.75333L49.3954 1.63241L33.1318 17.9565L32.9504 18.2588L32.2249 18.8634L27.8718 23.2164L27.3277 23.8815L26.9649 24.1233L25.0907 25.9976L24.7279 25.9371L8.52479 9.73398L8.16203 9.25031L7.79927 8.88755H7.67836L7.43652 8.52479L6.77146 7.98066L6.711 7.79928L6.40871 7.6179L4.71584 5.92503L4.53446 5.62274L0.604595 1.69287L0.362757 1.75333L0.302297 2.47884L0.181378 2.72068L0.0604595 4.83676L0 4.89722V6.46917L0.120919 6.95285L0.181378 8.34341L0.302297 8.58525V9.06893L0.483676 9.5526L0.544135 10.2781L0.665054 10.399V10.7013L0.846433 11.1246V11.4268L1.02781 11.7896L1.08827 12.1524L1.20919 12.2733L1.81378 13.9661L2.35792 15.0544L3.02297 16.0822L3.08343 16.3241L3.20435 16.3845V16.5054L3.99033 17.6542L5.38089 19.2866L7.37606 21.2213L8.04111 21.6445L8.16203 21.8259L8.88755 22.37L11.1245 23.7606L12.1524 24.1838L12.2733 24.3047L12.5756 24.3652L12.6965 24.4861L12.9988 24.5466L13.2406 24.7279L13.9057 24.9093L14.0266 25.0302L14.4498 25.0907L14.7521 25.2721H14.994L15.3567 25.4535H15.659L16.0218 25.6348H16.445L16.8682 25.8162H17.231L17.4123 25.9371L18.2588 25.9976L18.5006 26.1185L20.3748 26.179L20.9794 26.2999H24.0024L24.1233 26.4208L24.0629 27.0254V38.4522L24.3047 38.7545V38.8755L24.8489 39.1778H25.2721L25.7557 38.815L25.9371 38.4522L25.8767 37.8476V35.127L25.9371 35.0665L25.8767 26.4208L25.9976 26.2999L26.058 26.3603L29.5042 26.2999L29.9879 26.179L31.6203 26.1185L31.8622 25.9976H32.4063L32.89 25.8162L33.555 25.7557L33.7364 25.6348H34.0387L34.4015 25.4535H34.7037L35.0665 25.2721H35.3083L35.6106 25.0907H35.792L36.9408 24.6675L37.4244 24.3652L37.7267 24.3047L39.1777 23.5792L41.1125 22.37L43.1681 20.7376L44.6191 19.2866L46.1911 17.3519L46.6143 16.6264L46.977 16.2031V16.0822L47.4607 15.3567L47.5212 15.1149L47.6421 15.0544L48.3676 13.6034L49.1536 11.4268V11.185L49.2745 11.0641L49.3349 10.5804L49.5163 10.1572V9.79444L49.6977 9.31077V8.88755L49.8186 8.64571L49.8791 7.49698L50 7.13422V4.11125Z" fill="#1B5E4B"/>
<path d="M1.26965 0.604595L19.8912 19.1657L21.1608 20.5562L24.607 24.0024L24.9093 24.2443H25.0907L48.7304 0.483676L48.3071 0.241838L46.1306 0H43.6518L41.4752 0.241838L41.2334 0.362757H40.8706L40.3869 0.544135L39.8428 0.604595L39.6614 0.725514L39.1173 0.785973L38.9964 0.906892L38.5127 0.967352L38.3918 1.08827H38.2104L37.243 1.45103L37.0012 1.63241L36.6385 1.69287L36.578 1.81378H36.3966L35.1874 2.41838L33.555 3.44619L33.4341 3.62757H33.3132L32.2249 4.53446L32.0435 4.59492L31.8017 4.89722L30.4716 6.04595L29.1415 7.6179L28.9601 7.98065L28.8392 8.04111L28.7787 8.22249L28.2346 8.88755V9.00846L28.1137 9.06892L27.2068 10.5804L27.1463 10.8827L27.0254 10.9432L26.6626 11.6687L26.6022 11.971L26.4813 12.0919L26.4208 12.3942L26.2999 12.5151L26.2394 12.8779L26.1185 12.9383V13.1197L25.5744 14.5707L25.5139 15.0544L25.393 15.2358L25.3325 15.7799L25.2116 15.9008L25.0907 16.5659L24.8489 16.445L24.7884 15.7195L24.6675 15.5985V15.2963L24.4861 14.873L24.4256 14.3894L24.3047 14.208L24.2443 13.8452L24.1233 13.7243L23.8815 12.8779L23.7606 12.757L23.7001 12.3942L23.3978 11.9105L23.3374 11.6082L22.9746 10.8827L22.8537 10.8222L22.6119 10.2177L21.8863 9.00846L21.5236 8.58525L21.3422 8.22249L21.2213 8.16203L21.1608 7.98065L21.0399 7.92019L20.9794 7.73882L19.5284 6.04595L18.5006 5.0786L16.7473 3.68803L14.6312 2.35792L13.3011 1.69287L12.9988 1.63241L12.757 1.45103H12.5756L11.8501 1.08827H11.6082L11.4873 0.967352L11.0036 0.906892L10.8827 0.785973L10.399 0.725514L9.97582 0.544135H9.67352L9.49214 0.423216L8.82709 0.362757L8.64571 0.241838L7.6179 0.181378L7.3156 0.0604595H6.65054L6.59009 0H4.41354L4.35308 0.0604595H3.62757L3.20435 0.181378H2.5393L1.9347 0.362757H1.45103L1.26965 0.423216V0.604595Z" fill="#1B5E4B"/>
</svg>
